<svg fill="#000000" xmlns="http://www.w3.org/2000/svg"  viewBox="0 0 64 64" width="32px" height="32px"><path d="M 32 9 C 19.317 9 9 19.318 9 32 C 9 44.682 19.317 55 32 55 C 44.683 55 55 44.682 55 32 C 55 19.318 44.683 9 32 9 z M 32 13 C 42.477 13 51 21.523 51 32 C 51 42.477 42.477 51 32 51 C 21.523 51 13 42.477 13 32 C 13 21.523 21.523 13 32 13 z M 41.140625 20.832031 C 40.954148 20.846178 40.765297 20.890375 40.576172 20.96875 L 28.945312 25.785156 C 27.510312 26.379156 26.379156 27.510313 25.785156 28.945312 L 20.96875 40.576172 C 20.34175 42.090172 21.910828 43.65825 23.423828 43.03125 L 35.052734 38.214844 C 36.487734 37.620844 37.620844 36.489688 38.214844 35.054688 L 43.03125 23.423828 C 43.579875 22.099078 42.445961 20.733006 41.140625 20.832031 z M 32 30 C 33.104 30 34 30.895 34 32 C 34 33.105 33.104 34 32 34 C 30.896 34 30 33.105 30 32 C 30 30.895 30.896 30 32 30 z"/></svg>