<svg fill="#000000" xmlns="http://www.w3.org/2000/svg"  viewBox="0 0 64 64" width="32px" height="32px"><path d="M 32 8 C 31.08875 8 30.178047 8.3091875 29.435547 8.9296875 L 8.8007812 26.171875 C 8.0357812 26.810875 7.7634844 27.925203 8.2714844 28.783203 C 8.9184844 29.875203 10.35025 30.088547 11.28125 29.310547 L 12 28.710938 L 12 47 C 12 49.761 14.239 52 17 52 L 26 52 C 27.657 52 29 50.657 29 49 L 29 38.5 C 29 38.224 29.224 38 29.5 38 L 34.5 38 C 34.776 38 35 38.224 35 38.5 L 35 49 C 35 50.657 36.343 52 38 52 L 47 52 C 49.761 52 52 49.761 52 47 L 52 28.712891 L 52.71875 29.3125 C 53.09275 29.6255 53.546047 29.777344 53.998047 29.777344 C 54.693047 29.777344 55.382672 29.416656 55.763672 28.722656 C 56.228672 27.874656 55.954891 26.803594 55.212891 26.183594 L 52 23.498047 L 52 15 C 52 13.895 51.105 13 50 13 L 48 13 C 46.895 13 46 13.895 46 15 L 46 18.484375 L 34.564453 8.9296875 C 33.821953 8.3091875 32.91125 8 32 8 z M 32 12.152344 C 32.11475 12.152344 32.228766 12.191531 32.322266 12.269531 L 48 25.369141 L 48 46 C 48 47.105 47.105 48 46 48 L 39.5 48 C 39.224 48 39 47.776 39 47.5 L 39 37 C 39 35.343 37.657 34 36 34 L 28 34 C 26.343 34 25 35.343 25 37 L 25 47.5 C 25 47.776 24.776 48 24.5 48 L 18 48 C 16.895 48 16 47.105 16 46 L 16 25.367188 L 31.677734 12.269531 C 31.771234 12.191531 31.88525 12.152344 32 12.152344 z"/></svg>